<?xml version="1.0" standalone="no"?>
<!DOCTYPE svg PUBLIC "-//W3C//DTD SVG 20010904//EN"
 "http://www.w3.org/TR/2001/REC-SVG-20010904/DTD/svg10.dtd">
<svg version="1.0" xmlns="http://www.w3.org/2000/svg"
 width="900.000000pt" height="810.000000pt" viewBox="0 0 900.000000 810.000000"
 preserveAspectRatio="xMidYMid meet">
<metadata>
Created by potrace 1.10, written by Peter Selinger 2001-2011
</metadata>
<g transform="translate(0.000000,810.000000) scale(0.100000,-0.100000)"
fill="#000000" stroke="none">
<path d="M2285 6920 c-229 -21 -420 -154 -531 -369 -72 -140 -76 -170 -84
-581 -9 -438 -26 -599 -91 -865 -54 -220 -85 -302 -165 -440 -71 -124 -223
-262 -326 -297 -18 -6 -37 -14 -43 -18 -5 -4 -28 -10 -50 -14 -22 -4 -52 -12
-67 -18 l-28 -10 0 -163 0 -163 27 -11 c16 -6 46 -15 68 -20 240 -57 439 -273
531 -576 67 -221 97 -362 114 -535 6 -58 14 -112 17 -120 3 -8 9 -184 13 -390
6 -314 10 -386 25 -440 45 -164 132 -297 260 -396 53 -42 124 -76 215 -105
l75 -24 2150 0 c2052 0 2153 1 2210 18 197 60 331 167 424 341 77 141 88 220
94 647 6 344 15 458 53 649 59 297 126 493 218 638 42 67 164 185 231 223 72
41 114 57 180 71 85 18 85 19 85 194 0 147 -1 154 -22 168 -12 9 -31 16 -40
16 -38 0 -160 50 -226 93 -213 138 -336 381 -426 842 -38 197 -48 316 -56 696
-4 211 -13 408 -19 437 -5 29 -28 89 -50 135 -87 177 -242 309 -441 374 -52
17 -159 18 -2150 19 -1152 1 -2131 -2 -2175 -6z m2475 -1305 c123 -23 183 -42
290 -94 81 -39 108 -59 185 -136 93 -93 125 -144 168 -269 18 -52 21 -85 21
-221 1 -152 -1 -164 -27 -232 -74 -190 -223 -339 -397 -397 -30 -10 -62 -20
-70 -22 -23 -8 8 -24 46 -24 31 0 105 -21 161 -46 17 -8 34 -14 38 -14 14 0
146 -91 185 -127 86 -80 157 -194 197 -313 14 -45 18 -87 17 -225 0 -159 -2
-176 -28 -255 -33 -100 -56 -145 -113 -221 -140 -186 -349 -298 -643 -344 -91
-14 -196 -15 -785 -13 l-680 3 -3 1470 c-1 809 0 1476 3 1483 3 9 148 12 677
12 562 0 687 -3 758 -15z"/>
<path d="M3805 5227 c-3 -6 -4 -201 -3 -432 l3 -420 315 0 c330 0 398 6 530
48 197 63 310 211 310 409 0 148 -68 269 -191 337 -117 65 -161 71 -582 71
-293 0 -379 -3 -382 -13z"/>
<path d="M3807 4003 c-4 -3 -7 -217 -7 -473 0 -406 2 -469 15 -480 12 -10 99
-11 403 -7 341 5 397 8 467 26 168 42 259 94 330 191 79 108 102 292 55 434
-41 121 -149 216 -300 266 -145 47 -179 50 -577 50 -209 0 -383 -3 -386 -7z"/>
</g>
</svg>
