<?xml version="1.0" standalone="no"?>
<!DOCTYPE svg PUBLIC "-//W3C//DTD SVG 20010904//EN"
 "http://www.w3.org/TR/2001/REC-SVG-20010904/DTD/svg10.dtd">
<svg version="1.0" xmlns="http://www.w3.org/2000/svg" viewBox="0 0 300.000000 327.000000"
 preserveAspectRatio="xMidYMid meet">
<metadata>
Created by potrace 1.10, written by Peter Selinger 2001-2011
</metadata>
<g transform="translate(0.000000,327.000000) scale(0.050000,-0.050000)"
fill="#000000" stroke="none">
<path d="M614 5785 c-8 -16 8 -204 206 -2435 183 -2070 200 -2264 200 -2296 0
-22 256 -115 950 -343 l951 -313 934 310 c827 274 937 315 949 356 13 42 110
1123 306 3396 39 446 79 893 90 994 11 102 20 221 20 265 l0 81 -2299 0
c-1264 0 -2302 -7 -2307 -15z m3753 -960 c13 -22 -45 -551 -62 -566 -8 -7
-315 -143 -683 -301 l-667 -288 652 -5 653 -6 0 -54 c1 -62 -143 -1692 -150
-1701 -15 -19 -1133 -344 -1183 -344 -33 0 -415 107 -967 271 -250 74 -230 43
-257 414 -14 179 -30 377 -36 441 l-12 115 297 -5 298 -6 16 -200 c22 -267 2
-248 357 -339 l310 -79 178 52 c99 29 243 72 321 95 l142 41 13 175 c6 96 18
263 25 370 l13 195 -1000 0 -1000 0 -12 135 c-7 74 -18 203 -25 285 l-12 150
327 134 c483 198 1042 434 1054 446 5 5 -315 10 -711 10 l-721 0 -22 175 c-12
96 -28 227 -35 290 l-14 115 1452 0 c798 0 1456 -7 1461 -15z"/>
</g>
</svg>
