<?xml version="1.0" standalone="no"?>
<!DOCTYPE svg PUBLIC "-//W3C//DTD SVG 20010904//EN"
 "http://www.w3.org/TR/2001/REC-SVG-20010904/DTD/svg10.dtd">
<svg version="1.0" xmlns="http://www.w3.org/2000/svg"
 width="300.000000pt" height="300.000000pt" viewBox="0 0 300.000000 300.000000"
 preserveAspectRatio="xMidYMid meet">
<metadata>
Created by potrace 1.10, written by Peter Selinger 2001-2011
</metadata>
<g transform="translate(0.000000,300.000000) scale(0.050000,-0.050000)"
fill="#000000" stroke="none">
<path d="M2670 5708 c-1866 -275 -2905 -2147 -2141 -3858 606 -1358 2337
-1966 3677 -1292 1907 959 2032 3632 224 4761 -477 299 -1235 466 -1760 389z
m550 -2426 l0 -1357 -225 -36 c-1051 -167 -1615 144 -1619 892 -4 635 418
1027 1069 993 l195 -10 0 438 0 438 290 0 290 0 0 -1358z m940 1058 l0 -300
-300 0 -300 0 0 300 0 300 300 0 300 0 0 -300z m-5 -1525 c-12 -1259 -74
-1465 -513 -1702 l-105 -57 -269 127 c-308 146 -299 136 -166 196 149 67 322
245 373 383 71 190 85 386 85 1199 l0 779 302 0 302 0 -9 -925z"/>
<path d="M2250 3270 c-178 -63 -270 -226 -270 -483 0 -296 158 -457 449 -457
228 0 211 -39 211 480 l0 451 -51 19 c-74 28 -245 23 -339 -10z"/>
</g>
</svg>
