<?xml version="1.0" standalone="no"?>
<!DOCTYPE svg PUBLIC "-//W3C//DTD SVG 20010904//EN"
 "http://www.w3.org/TR/2001/REC-SVG-20010904/DTD/svg10.dtd">
<svg version="1.0" xmlns="http://www.w3.org/2000/svg" viewBox="0 0 900.000000 945.000000"
 preserveAspectRatio="xMidYMid meet">
<metadata>
Created by potrace 1.10, written by Peter Selinger 2001-2011
</metadata>
<g transform="translate(0.000000,945.000000) scale(0.100000,-0.100000)"
fill="#000000" stroke="none">
<path d="M4055 8973 c-215 -25 -434 -61 -531 -89 -28 -8 -59 -14 -69 -14 -9 0
-38 -6 -64 -14 -25 -8 -73 -22 -106 -32 -105 -30 -159 -47 -200 -62 -22 -8
-56 -20 -75 -27 -32 -12 -59 -22 -165 -63 -117 -45 -298 -131 -435 -206 -36
-20 -72 -39 -80 -43 -67 -31 -322 -200 -465 -307 -330 -247 -635 -553 -881
-881 -82 -109 -214 -301 -214 -310 0 -2 -12 -21 -26 -42 -14 -21 -30 -47 -35
-58 -5 -11 -25 -47 -45 -80 -67 -115 -227 -451 -254 -535 -5 -14 -18 -50 -30
-80 -29 -76 -83 -242 -105 -320 -9 -36 -23 -85 -30 -110 -12 -43 -30 -124 -61
-270 -89 -432 -101 -1025 -28 -1490 35 -223 104 -523 149 -650 7 -19 20 -60
29 -90 27 -85 58 -166 122 -320 58 -137 201 -423 254 -505 11 -16 23 -37 27
-45 4 -8 14 -26 24 -40 9 -14 49 -74 89 -135 228 -344 584 -735 880 -966 30
-23 57 -45 60 -49 22 -27 295 -215 430 -297 145 -88 360 -199 515 -268 74 -33
138 -59 185 -75 14 -5 50 -18 80 -30 149 -57 373 -122 565 -163 645 -140 1352
-129 1990 29 112 28 263 73 303 90 18 8 39 14 47 14 8 0 29 6 47 14 18 8 51
21 73 29 69 26 129 49 160 63 101 44 142 63 250 115 66 33 147 74 180 94 33
19 69 39 80 44 11 5 36 20 55 33 19 13 42 27 50 31 78 39 469 320 510 368 3 3
41 36 85 74 105 90 307 294 421 425 324 375 607 847 770 1283 24 63 43 115 58
155 58 152 144 494 180 717 46 278 50 342 50 715 0 445 -19 615 -111 1020 -25
113 -71 273 -89 318 -8 18 -14 39 -14 47 0 8 -6 29 -14 47 -8 18 -29 71 -46
118 -63 168 -203 476 -260 570 -5 8 -37 62 -71 120 -109 186 -285 434 -413
585 -98 115 -122 141 -256 276 -116 116 -173 169 -330 303 -105 90 -434 321
-500 352 -8 4 -22 13 -30 19 -67 54 -490 259 -680 330 -19 7 -53 19 -75 28
-100 37 -124 45 -180 62 -219 64 -332 93 -405 105 -25 4 -67 12 -95 18 -76 17
-234 39 -390 57 -178 20 -685 19 -860 -2z m-1686 -1724 c24 -17 49 -46 58 -66
13 -32 13 -43 -1 -99 -22 -85 -20 -108 8 -141 l24 -28 132 2 c102 2 139 -1
162 -13 37 -19 50 -52 38 -96 -6 -18 -7 -40 -4 -50 6 -20 123 -78 158 -78 36
0 200 -36 227 -50 40 -21 58 -40 64 -71 7 -32 39 -59 70 -59 26 0 72 -23 160
-82 89 -58 96 -61 180 -83 39 -10 75 -21 80 -26 6 -4 39 -17 75 -28 94 -31
207 -80 270 -118 69 -41 78 -49 118 -99 34 -45 42 -88 16 -98 -26 -10 -141 -7
-171 5 -15 6 -41 15 -58 20 -16 4 -64 19 -105 33 -137 47 -201 31 -236 -60
-17 -44 -17 -57 0 -262 9 -120 23 -314 32 -432 36 -511 99 -836 224 -1160 12
-30 24 -64 27 -74 6 -17 34 -73 82 -161 31 -56 74 -120 149 -220 68 -90 97
-126 166 -205 12 -14 54 -63 93 -110 158 -190 344 -345 578 -484 72 -42 137
-81 145 -86 28 -17 135 -67 190 -90 30 -12 64 -27 75 -32 11 -6 33 -15 50 -19
28 -7 53 -15 135 -44 47 -17 227 -64 353 -92 l78 -17 117 117 c64 64 128 125
142 135 78 57 160 68 207 28 l28 -24 -22 -44 c-11 -23 -46 -72 -77 -108 -45
-52 -56 -71 -54 -95 l3 -30 150 -1 c112 -1 159 -5 185 -16 87 -39 192 -31 244
17 l28 26 56 -28 c56 -27 61 -27 240 -28 l184 0 24 -28 c18 -22 24 -40 24 -79
0 -43 -4 -54 -31 -79 -17 -16 -39 -29 -48 -29 -9 0 -34 -7 -56 -15 -22 -8 -58
-14 -80 -15 -70 -1 -219 -46 -257 -78 -12 -10 -29 -12 -55 -8 -137 23 -204 17
-348 -34 -116 -41 -200 -60 -275 -60 -41 0 -111 -6 -155 -14 -220 -40 -620
-61 -870 -46 -570 34 -979 97 -1255 195 -19 7 -60 20 -90 29 -119 38 -321 129
-430 195 -19 11 -44 25 -55 31 -11 6 -32 18 -47 28 -15 9 -55 35 -90 56 -58
36 -127 89 -328 249 -137 110 -291 274 -431 462 -120 160 -204 277 -234 327
-5 9 -40 65 -76 125 -122 199 -246 443 -319 623 -12 30 -26 63 -31 72 -40 76
-133 381 -184 603 -43 186 -98 394 -116 443 -5 13 -18 51 -30 84 -11 33 -31
83 -45 111 -68 139 -70 234 -8 357 25 49 123 143 177 169 68 33 73 43 37 79
-36 36 -37 45 -9 96 33 63 48 71 184 105 58 15 112 64 126 113 13 49 4 121
-16 138 -20 17 -19 66 3 88 9 9 46 39 82 66 91 69 110 92 110 135 0 30 -8 43
-59 91 -39 37 -64 71 -76 102 -17 46 -17 48 2 85 28 54 83 83 159 83 52 0 67
-4 103 -31z"/>
<path d="M2216 7231 c-36 -24 -55 -57 -56 -95 0 -23 3 -27 12 -18 8 8 45 12
100 12 l88 0 0 34 c0 26 -7 41 -31 60 -36 31 -73 33 -113 7z"/>
<path d="M2518 6838 c-45 -16 -35 -38 16 -38 50 0 68 16 41 37 -21 15 -21 15
-57 1z"/>
<path d="M2535 6670 c-9 -14 4 -69 23 -100 23 -36 92 -98 118 -104 13 -3 35
-1 50 4 24 10 26 14 20 50 -5 30 -2 41 11 48 39 22 -3 52 -132 93 -69 22 -81
23 -90 9z"/>
<path d="M2410 6546 c-14 -7 -43 -17 -64 -20 -67 -12 -21 -25 91 -25 109 0
123 7 85 42 -22 20 -77 21 -112 3z"/>
<path d="M2895 6470 c-41 -7 -125 -30 -180 -49 -71 -24 -139 -41 -161 -41 -14
0 -41 -7 -61 -15 -19 -8 -46 -15 -58 -15 -32 0 -56 -10 -49 -21 3 -5 54 -8
114 -8 82 0 116 -4 140 -16 35 -18 47 -13 52 24 1 14 8 26 14 28 15 5 52 -30
84 -79 56 -85 140 -63 140 36 0 39 18 48 40 21 7 -8 19 -15 26 -15 14 0 20 30
7 30 -5 0 -16 12 -26 26 -18 24 -18 26 -2 51 17 25 17 27 -1 40 -19 14 -20 14
-79 3z"/>
<path d="M2283 6303 c9 -2 25 -2 35 0 9 3 1 5 -18 5 -19 0 -27 -2 -17 -5z"/>
<path d="M2186 6280 c-15 -5 -16 -8 -5 -12 8 -3 23 -2 33 2 15 5 16 8 5 12 -8
3 -23 2 -33 -2z"/>
<path d="M3370 6285 c-8 -2 -32 -6 -52 -10 -43 -7 -48 -23 -18 -50 15 -14 20
-29 18 -54 -3 -40 -18 -47 -74 -36 -42 7 -53 40 -30 85 14 28 14 32 -1 37 -9
4 -41 1 -72 -6 -31 -7 -81 -16 -111 -21 -30 -4 -68 -13 -83 -19 -16 -6 -41
-11 -57 -11 -15 0 -41 -7 -56 -15 -16 -8 -37 -15 -46 -15 -10 0 -35 -6 -55
-14 -21 -7 -65 -22 -98 -31 -33 -10 -78 -24 -100 -30 -22 -7 -65 -20 -95 -28
-30 -9 -80 -23 -111 -31 -31 -9 -65 -16 -77 -16 -37 0 -119 -21 -138 -35 -18
-13 -18 -14 1 -30 11 -9 30 -20 43 -25 22 -10 31 -30 12 -30 -5 0 -10 -11 -10
-25 0 -17 8 -29 24 -37 33 -15 41 -39 19 -56 -37 -28 -171 6 -215 54 -9 11
-18 37 -20 59 l-3 40 -45 -3 c-64 -4 -162 -38 -218 -76 -59 -41 -83 -86 -79
-148 4 -46 45 -139 63 -142 5 0 11 40 14 89 7 118 40 178 106 191 60 11 100
-17 50 -35 -24 -10 -36 -29 -36 -59 0 -18 61 -92 75 -92 5 0 16 -7 25 -15 9
-8 37 -18 61 -21 52 -7 79 11 79 52 0 29 4 31 95 43 75 11 100 3 90 -30 -3 -9
-2 -20 3 -23 16 -10 136 35 266 100 175 87 225 104 311 104 107 0 410 50 550
91 39 11 89 24 113 29 164 35 286 184 226 275 -16 25 -17 25 -173 24 -86 -1
-163 -3 -171 -4z m110 -68 c0 -7 -20 -23 -45 -35 -50 -24 -59 -14 -23 25 23
25 68 31 68 10z m-544 -101 c16 -12 17 -17 6 -28 -9 -9 -40 -12 -109 -11 -75
2 -102 -1 -124 -14 -21 -12 -32 -14 -40 -6 -14 14 48 53 87 54 16 1 40 5 54 9
41 13 105 11 126 -4z m-391 -126 c20 -7 26 -16 23 -33 -4 -32 -62 -36 -94 -6
-41 39 5 64 71 39z m-80 -95 c46 -37 60 -68 40 -85 -9 -7 -33 0 -89 27 -42 21
-76 42 -76 47 0 19 34 46 58 46 14 0 44 -16 67 -35z"/>
<path d="M1960 6211 c0 -6 -14 -11 -32 -13 -17 -2 -33 -9 -36 -15 -6 -22 35
-15 74 12 31 21 33 25 15 25 -11 0 -21 -4 -21 -9z"/>
<path d="M4040 6096 c0 -8 17 -25 38 -37 20 -13 43 -31 50 -41 20 -28 34 -21
30 14 -2 26 -11 37 -43 55 -46 26 -75 29 -75 9z"/>
<path d="M3445 5887 c-11 -8 -69 -22 -130 -31 -60 -10 -130 -25 -155 -33 -25
-8 -52 -17 -60 -20 -11 -3 -5 -13 23 -37 20 -18 37 -36 37 -40 0 -11 -67 -6
-110 9 -67 24 -97 20 -115 -14 -16 -31 -49 -44 -107 -41 -55 3 -60 2 -53 -20
5 -16 -2 -29 -29 -53 -49 -45 -122 -70 -194 -65 -110 6 -120 -41 -37 -177 31
-52 31 -73 -3 -114 -25 -30 -35 -34 -95 -40 -74 -8 -114 -34 -119 -79 -2 -18
-10 -28 -28 -32 -38 -9 -40 -70 -5 -116 25 -33 30 -35 67 -29 76 13 163 -43
192 -124 15 -42 17 -66 11 -137 -8 -89 -20 -108 -54 -87 -21 13 -61 92 -61
121 0 14 13 36 31 53 l30 28 -23 32 c-13 17 -35 37 -51 45 -34 18 -49 10 -107
-63 -41 -53 -44 -77 -10 -88 30 -10 100 -86 100 -109 0 -12 -7 -31 -15 -42
-16 -23 -11 -34 15 -34 36 0 120 -116 120 -167 0 -23 40 -93 56 -100 9 -3 28
7 48 26 17 17 37 31 44 31 20 0 14 28 -9 44 -41 29 -149 138 -149 152 0 8 15
14 43 16 l42 3 0 85 c0 80 1 85 25 97 34 17 40 6 30 -47 -19 -95 -9 -150 27
-150 7 0 38 23 68 50 30 28 60 50 65 50 6 0 10 14 10 30 0 35 23 41 40 10 12
-23 6 -40 -16 -40 -8 0 -14 -2 -14 -5 0 -3 25 -42 55 -86 30 -44 55 -86 55
-94 0 -21 -41 -55 -64 -55 -12 1 -32 7 -46 15 -31 18 -60 19 -60 3 1 -7 26
-33 56 -58 90 -73 114 -109 119 -179 6 -97 41 -147 97 -138 26 4 39 -1 60 -20
31 -29 48 -23 48 17 0 35 9 42 48 34 34 -7 102 -68 103 -93 1 -26 43 -104 58
-109 21 -7 8 55 -24 124 -43 91 -16 82 79 -25 72 -82 93 -129 77 -169 -15 -35
-59 -62 -100 -62 -17 0 -31 -5 -31 -10 0 -12 88 -96 127 -121 14 -9 43 -20 65
-23 58 -9 92 -30 130 -78 56 -70 74 -138 46 -166 -17 -17 -79 -15 -102 3 -11
8 -28 15 -38 15 -10 0 -18 3 -18 8 0 7 -13 15 -80 47 -52 25 -120 44 -120 34
0 -19 44 -51 118 -85 42 -20 95 -44 118 -55 22 -10 43 -19 47 -19 17 0 299
-137 367 -179 19 -11 46 -26 60 -32 33 -14 270 -253 270 -272 0 -15 -40 -27
-89 -27 -36 0 -129 33 -149 53 -14 15 -14 18 2 36 20 22 18 24 -53 45 -62 18
-71 15 -71 -22 1 -79 110 -129 305 -141 l110 -6 3 -27 c2 -16 -2 -28 -7 -28
-7 0 -10 -20 -8 -55 3 -51 6 -58 35 -75 23 -14 51 -20 97 -20 l64 0 46 -60
c56 -73 75 -75 138 -20 25 22 51 40 58 40 10 0 10 -3 1 -12 -16 -16 -15 -38 1
-38 6 0 39 14 71 30 99 50 204 37 401 -51 130 -58 161 -69 191 -69 18 0 51 -6
71 -14 149 -53 184 -57 253 -25 l45 20 -23 19 c-13 11 -40 22 -60 25 -20 4
-57 13 -81 21 -25 8 -51 14 -58 14 -35 0 -113 43 -119 65 -5 21 -12 23 -87 27
-112 5 -184 41 -295 148 -48 47 -93 82 -109 85 -72 14 -259 84 -293 110 -8 6
-32 20 -52 30 -56 29 -148 110 -195 174 -33 43 -43 65 -43 94 0 33 -10 47 -81
125 -83 88 -194 245 -228 318 -5 12 -31 44 -56 70 -26 27 -54 58 -62 71 -11
17 -25 23 -49 23 -27 0 -37 5 -43 23 -13 34 -54 73 -100 96 -38 20 -40 24 -30
44 6 12 25 34 42 48 29 25 30 28 15 51 -9 13 -23 50 -33 83 -35 124 -71 247
-91 314 -8 25 -14 56 -15 70 -1 44 -36 165 -49 169 -12 4 -59 -41 -79 -76 -9
-15 -10 -14 -11 5 0 13 5 43 12 68 10 37 16 45 35 45 17 0 28 10 40 35 17 36
17 36 -11 58 -27 22 -27 24 -19 87 10 83 7 108 -18 142 -17 25 -18 34 -9 90
21 135 10 277 -26 319 -8 8 -14 34 -14 56 0 23 -6 46 -14 52 -8 7 -12 21 -8
33 5 20 6 20 18 3 8 -10 16 -16 20 -13 3 4 8 51 11 106 6 110 -14 204 -48 222
-25 14 -71 12 -94 -3z m53 -271 c2 -21 -4 -53 -13 -72 -18 -38 -17 -75 3 -82
7 -2 12 6 12 21 0 34 10 58 21 51 17 -10 9 -70 -14 -114 -31 -58 -50 -70 -76
-46 -52 47 -3 300 54 283 6 -2 11 -21 13 -41z m-593 -237 c4 -12 2 -26 -4 -32
-15 -15 -44 14 -35 36 9 24 31 21 39 -4z m-87 -58 c39 -25 51 -38 47 -51 -3
-9 -1 -30 5 -45 10 -26 9 -27 -16 -21 -26 7 -83 42 -96 61 -10 13 -10 98 0 93
4 -2 31 -18 60 -37z m-84 -117 c26 -10 18 -24 -14 -24 -29 0 -38 9 -23 23 8 9
17 9 37 1z m-54 -39 c7 -8 16 -15 21 -15 12 0 99 -59 132 -88 23 -22 36 -52
22 -52 -4 0 -39 14 -92 36 -17 8 -40 14 -51 14 -39 0 -113 84 -97 110 9 15 51
12 65 -5z m163 -7 c26 -13 47 -26 47 -30 0 -14 -57 -9 -69 6 -7 8 -23 17 -36
20 -14 4 -25 11 -25 16 0 16 32 12 83 -12z m-277 -61 c117 -51 187 -139 98
-122 l-34 6 5 -53 c7 -62 -2 -80 -41 -80 -23 0 -41 13 -86 63 -54 60 -70 89
-49 89 5 0 14 -6 20 -14 15 -18 49 -27 57 -14 3 5 -1 17 -10 27 -22 24 -10 32
22 15 55 -28 70 -11 25 28 -32 27 -58 68 -44 68 5 0 22 -6 37 -13z m214 -217
c0 -11 -4 -20 -10 -20 -5 0 -10 2 -10 4 0 2 -3 11 -6 20 -4 11 -1 16 10 16 9
0 16 -8 16 -20z m585 -51 c4 -19 16 -34 31 -39 22 -9 24 -15 24 -73 0 -36 5
-68 12 -75 25 -25 -4 -131 -33 -120 -4 2 -23 27 -42 55 -55 82 -69 193 -36
281 8 19 12 22 24 12 7 -6 17 -25 20 -41z m221 -14 c-3 -9 -10 -13 -16 -10
-12 7 -13 48 -3 59 11 11 27 -30 19 -49z m-701 -35 c9 0 15 -10 15 -24 0 -14
5 -28 11 -31 5 -4 14 -18 19 -31 5 -13 14 -24 20 -24 14 0 12 30 -3 49 -17 20
-38 91 -27 91 5 0 16 -3 24 -6 19 -7 159 -170 168 -196 4 -10 -1 -27 -13 -41
-10 -14 -19 -30 -19 -36 0 -6 -13 -11 -30 -11 -16 0 -30 -4 -30 -9 0 -5 -7
-12 -16 -15 -20 -8 -58 34 -85 93 -42 92 -47 107 -52 146 -3 22 -8 49 -12 60
-6 18 -5 18 5 3 6 -10 18 -18 25 -18z m-165 -50 c0 -25 -18 -36 -26 -16 -8 21
3 49 16 41 5 -3 10 -15 10 -25z m1054 -670 c6 -34 -2 -62 -17 -57 -17 5 -38
90 -24 99 16 10 34 -8 41 -42z m81 -278 c0 -18 -20 -15 -23 4 -3 10 1 15 10
12 7 -3 13 -10 13 -16z m191 -219 c19 -26 17 -35 -8 -31 -15 2 -24 11 -26 26
-4 26 15 29 34 5z m215 -310 c12 -23 19 -49 15 -59 -6 -16 -8 -15 -28 2 -11
11 -36 42 -54 71 -33 50 -42 82 -27 97 10 9 67 -59 94 -111z"/>
<path d="M1805 5590 c-8 -12 20 -24 35 -15 6 3 8 11 5 16 -8 12 -32 12 -40 -1z"/>
<path d="M2235 5471 c-6 -11 1 -16 35 -24 14 -4 31 -16 38 -28 12 -19 11 -20
-7 -14 -24 7 -37 -11 -21 -30 30 -37 140 3 140 51 0 33 -45 54 -119 54 -33 0
-62 -4 -66 -9z"/>
<path d="M2048 5399 c-25 -14 -22 -33 6 -48 42 -23 85 16 54 47 -15 15 -37 15
-60 1z"/>
<path d="M2177 5324 c-9 -10 2 -24 19 -24 8 0 14 7 14 15 0 15 -21 21 -33 9z"/>
<path d="M2040 5138 c0 -8 15 -19 33 -26 45 -16 49 -15 45 11 -2 18 -10 23
-40 25 -27 2 -38 -1 -38 -10z"/>
<path d="M1846 5052 c-12 -20 7 -52 30 -52 28 0 28 1 12 35 -11 25 -32 33 -42
17z"/>
<path d="M2035 5049 c-10 -15 25 -49 51 -49 31 0 36 12 18 38 -16 23 -58 30
-69 11z"/>
<path d="M1924 4830 c4 -14 10 -42 13 -62 3 -21 10 -38 14 -38 5 0 9 -10 9
-22 0 -17 -7 -11 -30 24 -27 41 -56 65 -66 55 -5 -5 33 -106 49 -130 8 -12 43
-90 79 -173 81 -189 158 -309 158 -248 0 9 -6 28 -14 42 -20 38 -46 110 -46
128 0 8 -14 43 -31 77 -18 36 -26 63 -20 65 6 2 11 13 11 25 0 57 -73 229
-111 262 l-22 20 7 -25z"/>
<path d="M2326 4502 c-8 -13 11 -35 23 -28 16 10 14 36 -3 36 -8 0 -17 -4 -20
-8z"/>
<path d="M2787 4333 c-12 -11 -8 -43 9 -68 8 -13 14 -34 12 -47 -5 -36 -59
-36 -142 2 -73 32 -123 39 -132 16 -3 -8 7 -40 21 -71 23 -47 34 -59 68 -72
23 -9 103 -47 178 -85 75 -37 146 -69 159 -70 52 -6 30 49 -51 133 -35 37 -69
124 -69 178 0 13 -9 39 -21 57 -22 37 -23 37 -32 27z"/>
<path d="M2040 4260 c0 -25 26 -90 87 -215 37 -76 44 -88 86 -153 15 -24 27
-45 27 -47 0 -2 51 -79 113 -170 61 -91 117 -175 123 -186 6 -11 20 -30 31
-42 12 -12 24 -33 28 -47 26 -86 215 -347 314 -435 19 -16 39 -35 45 -40 6 -6
27 -22 46 -35 19 -13 70 -59 113 -101 84 -83 163 -129 222 -129 47 0 52 16 18
58 -38 47 -99 90 -141 98 -40 8 -157 114 -166 150 -5 18 -20 31 -52 46 -33 14
-53 32 -74 66 -63 104 -79 122 -105 122 -45 0 -108 74 -136 160 -33 103 -62
152 -120 202 -27 24 -49 49 -49 56 0 20 -40 78 -135 197 -49 61 -94 124 -102
140 -7 17 -17 37 -22 45 -14 25 -41 90 -41 100 0 11 -63 117 -90 150 -13 17
-20 20 -20 10z"/>
<path d="M2540 3876 c0 -9 7 -16 16 -16 9 0 14 5 12 12 -6 18 -28 21 -28 4z"/>
<path d="M3230 3876 c0 -14 34 -28 44 -18 15 14 4 32 -19 32 -15 0 -25 -6 -25
-14z"/>
<path d="M2907 3846 c-3 -7 -1 -18 5 -24 6 -6 1 -8 -15 -5 -21 4 -26 1 -29
-18 -2 -16 -11 -25 -25 -27 -31 -5 -29 -18 7 -49 22 -18 28 -31 24 -46 -4 -17
7 -34 51 -75 31 -30 53 -57 49 -60 -4 -4 -9 -1 -11 6 -5 14 -63 17 -63 3 0
-10 12 -17 97 -60 26 -14 92 -51 146 -83 59 -36 105 -57 114 -53 14 5 13 9 -5
26 -13 11 -22 32 -22 49 0 22 -11 41 -45 72 -28 26 -45 51 -45 65 0 16 -12 31
-39 47 -53 34 -58 45 -31 66 22 16 22 18 5 27 -26 15 -12 41 31 59 57 24 47
32 -92 77 -63 21 -100 22 -107 3z"/>
<path d="M3371 3293 c21 -27 32 -33 62 -33 40 0 30 19 -18 36 -53 18 -60 17
-44 -3z"/>
<path d="M3080 3207 c0 -29 39 -70 81 -86 19 -7 49 -19 67 -27 48 -21 205 -19
227 2 9 9 14 21 13 26 -4 10 -115 55 -223 91 -27 10 -76 17 -107 17 -54 0 -58
-2 -58 -23z"/>
<path d="M3486 3192 c-7 -12 104 -94 148 -109 49 -17 101 -14 101 7 0 9 -14
17 -37 21 -20 3 -43 10 -50 16 -23 19 -130 73 -144 73 -7 0 -15 -4 -18 -8z"/>
<path d="M3646 3192 c-10 -16 158 -82 208 -82 40 0 65 14 41 24 -9 3 -26 6
-38 6 -12 0 -49 14 -81 30 -56 29 -119 39 -130 22z"/>
<path d="M4552 3069 c2 -6 8 -10 13 -10 5 0 11 4 13 10 2 6 -4 11 -13 11 -9 0
-15 -5 -13 -11z"/>
<path d="M3680 3010 c0 -9 83 -50 101 -50 5 0 9 6 9 13 -1 25 -110 63 -110 37z"/>
<path d="M3670 2866 c0 -19 73 -56 112 -56 40 0 35 15 -14 39 -65 30 -98 36
-98 17z"/>
<path d="M3520 2680 c0 -5 7 -10 15 -10 8 0 15 5 15 10 0 6 -7 10 -15 10 -8 0
-15 -4 -15 -10z"/>
<path d="M3932 2648 c5 -15 57 -18 61 -3 1 6 -13 11 -32 13 -24 3 -32 0 -29
-10z"/>
<path d="M4275 2621 c-7 -13 17 -24 40 -19 9 1 16 8 16 13 0 14 -48 19 -56 6z"/>
<path d="M3567 2477 c15 -13 35 -27 43 -30 8 -4 29 -16 45 -27 17 -11 42 -25
58 -31 15 -6 27 -15 27 -19 0 -5 12 -10 27 -12 35 -4 43 -28 9 -28 -31 0 -34
-16 -5 -25 14 -5 25 -1 33 11 9 12 20 15 40 10 30 -7 26 -26 -5 -26 -30 0 -18
-24 14 -28 14 -2 31 -10 37 -18 7 -8 18 -14 26 -14 7 0 30 -7 51 -16 120 -52
170 -69 328 -108 55 -14 145 -32 200 -40 55 -8 134 -20 175 -27 41 -7 104 -15
140 -19 36 -4 103 -12 150 -18 185 -25 292 -32 445 -31 173 1 326 17 332 35 7
20 -89 27 -257 19 -134 -6 -166 -5 -216 10 -48 14 -97 17 -269 16 -159 -1
-223 2 -265 14 -30 8 -73 15 -96 15 -45 0 -194 31 -239 50 -69 29 -102 43
-128 56 -16 8 -35 14 -42 14 -7 0 -26 6 -42 14 -15 8 -48 22 -73 31 -25 10
-57 23 -72 31 -14 8 -31 14 -37 14 -19 0 -159 66 -354 167 -34 18 -72 33 -85
33 -23 0 -23 0 5 -23z"/>
<path d="M3780 2476 c0 -9 7 -16 16 -16 17 0 14 22 -4 28 -7 2 -12 -3 -12 -12z"/>
<path d="M3526 2441 c-3 -5 1 -12 10 -15 20 -8 29 -1 19 13 -8 13 -22 14 -29
2z"/>
<path d="M5040 2390 c-30 -22 -58 -46 -62 -53 -23 -35 9 -50 49 -22 19 14 22
13 37 -10 21 -31 36 -32 65 -1 18 19 22 33 19 72 -3 44 -6 49 -28 52 -17 2
-43 -10 -80 -38z"/>
<path d="M3570 2411 c0 -12 29 -23 41 -15 5 3 7 10 4 15 -8 12 -45 12 -45 0z"/>
<path d="M3635 2380 c-4 -6 -4 -10 -1 -10 2 0 11 -3 20 -6 9 -3 16 -2 16 4 0
14 -28 23 -35 12z"/>
<path d="M6042 2370 c-56 -34 -30 -46 116 -54 70 -3 172 -9 227 -12 92 -6 102
-4 125 15 21 17 23 22 10 31 -8 5 -35 10 -60 10 -25 0 -83 7 -130 15 -126 22
-247 20 -288 -5z"/>
<path d="M5219 2357 c-43 -29 -51 -57 -15 -57 27 0 71 32 87 63 14 26 -30 23
-72 -6z"/>
<path d="M3682 2348 c5 -15 48 -18 48 -3 0 6 -11 11 -26 13 -18 3 -25 0 -22
-10z"/>
<path d="M7143 2353 c-43 -4 -60 -27 -30 -39 21 -8 212 20 212 31 0 10 -109
15 -182 8z"/>
<path d="M4047 2324 c-13 -13 -7 -24 14 -24 11 0 19 5 17 12 -5 14 -22 21 -31
12z"/>
<path d="M5383 2299 c-23 -9 -30 -24 -14 -33 11 -7 45 18 40 31 -3 7 -12 7
-26 2z"/>
<path d="M5232 2272 c-13 -10 -20 -21 -16 -25 15 -15 42 -6 58 18 15 23 15 25
-1 25 -10 0 -28 -8 -41 -18z"/>
<path d="M5414 2236 c-18 -14 -18 -15 -1 -22 22 -8 46 11 31 26 -7 7 -17 5
-30 -4z"/>
<path d="M4280 2230 c0 -6 6 -12 13 -14 6 -2 28 -8 47 -15 121 -43 299 -65
293 -37 -3 14 -70 34 -151 46 -40 5 -82 14 -92 20 -25 13 -110 13 -110 0z"/>
<path d="M5567 2220 c-17 -20 -22 -40 -11 -40 13 0 74 42 74 51 0 17 -45 9
-63 -11z"/>
<path d="M5845 2021 c-7 -12 12 -24 25 -16 11 7 4 25 -10 25 -5 0 -11 -4 -15
-9z"/>
</g>
</svg>
