<?xml version="1.0" standalone="no"?>
<!DOCTYPE svg PUBLIC "-//W3C//DTD SVG 20010904//EN"
 "http://www.w3.org/TR/2001/REC-SVG-20010904/DTD/svg10.dtd">
<svg version="1.0" xmlns="http://www.w3.org/2000/svg"
 width="300.000000pt" height="293.000000pt" viewBox="0 0 300.000000 293.000000"
 preserveAspectRatio="xMidYMid meet">
<metadata>
Created by potrace 1.10, written by Peter Selinger 2001-2011
</metadata>
<g transform="translate(0.000000,293.000000) scale(0.050000,-0.050000)"
fill="#000000" stroke="none">
<path d="M2710 5243 c-70 -32 -510 -465 -510 -502 0 -6 121 -132 269 -280
l269 -268 116 4 c223 9 374 -145 375 -382 l1 -114 259 -260 260 -260 100 11
c399 43 552 -516 193 -706 -267 -140 -576 85 -530 387 l13 91 -237 238 c-131
131 -244 238 -253 238 -8 0 -15 -292 -15 -648 l0 -649 69 -42 c207 -128 187
-479 -34 -609 -404 -237 -783 315 -417 609 l82 66 0 653 0 653 -82 66 c-104
84 -144 178 -142 333 l1 122 -265 264 -265 264 -741 -731 c-835 -823 -862
-859 -785 -1065 26 -69 2115 -2169 2238 -2248 95 -62 194 -74 295 -37 75 28
2242 2190 2278 2273 39 91 35 205 -11 280 -56 91 -2211 2231 -2277 2260 -77
34 -162 31 -254 -11z"/>
</g>
</svg>
