<?xml version="1.0" standalone="no"?>
<!DOCTYPE svg PUBLIC "-//W3C//DTD SVG 20010904//EN"
 "http://www.w3.org/TR/2001/REC-SVG-20010904/DTD/svg10.dtd">
<svg version="1.0" xmlns="http://www.w3.org/2000/svg"
 width="300.000000pt" height="308.000000pt" viewBox="0 0 300.000000 308.000000"
 preserveAspectRatio="xMidYMid meet">
<metadata>
Created by potrace 1.10, written by Peter Selinger 2001-2011
</metadata>
<g transform="translate(0.000000,308.000000) scale(0.050000,-0.050000)"
fill="#000000" stroke="none">
<path d="M1000 5253 c0 -26 50 -609 110 -1295 61 -686 142 -1608 180 -2048 38
-440 75 -838 81 -884 l11 -84 859 -286 859 -286 859 286 859 286 11 84 c6 46
29 295 51 554 22 259 103 1181 180 2050 77 868 140 1600 140 1625 l0 45 -2100
0 -2100 0 0 -47z m3420 -902 c0 -38 -10 -160 -23 -270 l-23 -201 -1010 0
-1010 0 12 -105 c7 -58 18 -175 26 -260 l14 -155 956 0 c525 0 959 -7 963 -15
11 -22 -133 -1620 -147 -1634 -6 -6 -250 -77 -542 -157 l-530 -146 -537 146
c-295 80 -543 152 -550 161 -7 8 -24 164 -37 345 -13 182 -28 364 -35 405
l-11 75 271 0 270 0 14 -202 c11 -154 22 -204 45 -213 17 -7 152 -45 299 -86
l267 -73 284 80 c156 45 286 82 288 83 5 3 66 601 66 644 0 22 -163 28 -915
32 l-915 5 -64 770 c-35 424 -64 786 -65 805 -1 33 75 35 1319 35 l1320 0 0
-69z"/>
</g>
</svg>
