<?xml version="1.0" standalone="no"?>
<!DOCTYPE svg PUBLIC "-//W3C//DTD SVG 20010904//EN"
 "http://www.w3.org/TR/2001/REC-SVG-20010904/DTD/svg10.dtd">
<svg version="1.0" xmlns="http://www.w3.org/2000/svg" viewBox="0 0 300.000000 329.000000"
 preserveAspectRatio="xMidYMid meet">
<metadata>
Created by potrace 1.10, written by Peter Selinger 2001-2011
</metadata>
<g transform="translate(0.000000,329.000000) scale(0.050000,-0.050000)"
fill="#000000" stroke="none">
<path d="M740 3300 l0 -2300 2310 0 2310 0 0 2300 0 2300 -2310 0 -2310 0 0
-2300z m3820 157 c147 -68 343 -269 297 -305 -34 -27 -301 -192 -310 -192 -6
0 -47 36 -89 80 -150 155 -398 95 -398 -96 0 -135 56 -180 400 -322 460 -191
647 -547 482 -917 -204 -457 -1084 -479 -1379 -34 -80 122 -81 120 109 233
l158 94 69 -82 c215 -255 659 -224 661 46 0 95 -73 153 -386 306 -428 210
-529 322 -549 612 -34 480 470 791 935 577z m-1300 -733 c0 -1071 -28 -1173
-371 -1327 -204 -92 -584 -43 -750 97 -64 54 -179 210 -179 243 0 36 348 230
358 200 37 -117 247 -224 358 -185 133 48 133 48 140 929 l6 799 219 0 219 0
0 -756z"/>
</g>
</svg>
