 <svg version="1.0" xmlns="http://www.w3.org/2000/svg"  width="900.000000pt" height="1047.000000pt" viewBox="0 0 900.000000 1047.000000"  preserveAspectRatio="xMidYMid meet">  <g transform="translate(0.000000,1047.000000) scale(0.100000,-0.100000)" fill="#000000" stroke="none"> <path d="M5246 9461 c-4 -6 0 -50 9 -98 11 -60 16 -141 16 -258 -1 -455 -135 -721 -601 -1185 -179 -180 -334 -311 -544 -460 -291 -207 -608 -504 -791 -741 -153 -198 -212 -418 -170 -644 45 -249 160 -443 490 -825 150 -174 587 -610 611 -610 20 0 19 4 -36 106 -62 117 -143 242 -235 364 -246 328 -354 582 -400 941 -9 75 27 221 88 349 112 238 329 479 772 855 281 239 601 579 723 770 77 120 152 261 152 285 0 9 4 20 9 25 18 21 81 254 102 380 18 107 15 308 -5 385 -17 66 -129 305 -164 349 -13 16 -21 20 -26 12z"/> <path d="M6185 7617 c-16 -6 -111 -39 -210 -74 -345 -122 -473 -177 -682 -294 -244 -136 -474 -298 -593 -418 -239 -239 -372 -532 -357 -784 13 -229 104 -442 306 -722 217 -301 268 -414 259 -575 -5 -89 -22 -131 -119 -292 -39 -65 -69 -122 -67 -128 8 -24 285 188 368 281 135 151 221 294 251 419 23 91 23 129 4 203 -8 32 -15 64 -15 72 0 43 -99 219 -180 320 -115 144 -216 318 -271 470 -29 79 -33 102 -33 190 0 164 53 277 223 472 173 197 584 502 1056 782 77 46 142 85 144 87 9 8 -56 1 -84 -9z"/> <path d="M6700 4610 c-129 -25 -152 -33 -205 -71 -43 -31 -56 -49 -36 -49 5 0 49 9 98 21 333 80 658 -112 705 -417 22 -139 -16 -322 -93 -450 -126 -210 -404 -439 -826 -683 -71 -41 -90 -57 -80 -68 12 -12 312 96 527 189 429 186 710 425 797 677 71 208 61 387 -32 526 -87 131 -239 254 -369 301 -130 46 -321 56 -486 24z"/> <path d="M2940 4530 c-85 -10 -180 -23 -210 -30 -287 -64 -755 -232 -888 -318 -176 -115 -127 -208 148 -278 322 -83 809 -126 1435 -126 838 1 1435 47 2045 157 319 58 352 68 470 140 58 35 122 71 143 81 20 10 37 21 37 26 0 15 -65 8 -331 -33 -655 -100 -894 -124 -1639 -160 -273 -13 -995 -7 -1235 11 -88 6 -209 20 -270 31 -180 32 -250 58 -274 103 -19 34 1 63 76 114 129 88 231 128 612 248 99 30 120 40 100 45 -32 9 -41 9 -219 -11z"/> <path d="M2690 3424 c-102 -51 -146 -78 -187 -119 -50 -51 -53 -57 -53 -104 0 -44 4 -55 35 -85 140 -140 466 -237 950 -282 261 -24 917 -25 1145 -1 302 32 413 48 725 107 163 31 535 117 543 125 10 9 -21 32 -90 68 -37 19 -95 57 -128 83 -34 27 -70 55 -81 62 -15 12 -45 9 -201 -17 -316 -52 -511 -78 -808 -107 -245 -24 -942 -24 -1220 0 -279 24 -437 65 -500 128 -47 46 -48 70 -6 137 20 33 36 62 36 65 0 15 -35 2 -160 -60z"/> <path d="M2990 2486 c-276 -115 -346 -233 -212 -358 181 -170 620 -282 1238 -317 256 -15 602 10 904 64 220 40 658 163 751 211 37 19 30 30 -35 59 -64 28 -274 133 -341 169 -54 30 -60 30 -215 1 -78 -14 -221 -36 -350 -54 -292 -42 -692 -52 -1000 -26 -412 35 -618 75 -674 132 -31 31 -32 38 -6 88 33 64 27 67 -60 31z"/> <path d="M2030 1873 c-152 -16 -454 -101 -627 -177 -229 -101 -403 -237 -403 -316 0 -75 94 -139 289 -195 236 -68 915 -154 1696 -215 409 -32 1255 -37 1620 -10 72 5 198 14 280 19 487 33 1073 114 1400 192 493 118 864 281 931 410 29 56 11 126 -42 168 -46 37 -54 29 -47 -49 l6 -71 -47 -44 c-50 -48 -187 -119 -296 -154 -224 -71 -773 -150 -1345 -196 -374 -29 -496 -36 -885 -50 -1157 -42 -2025 8 -2590 150 -295 74 -414 137 -396 211 10 39 45 64 184 131 145 70 272 115 372 133 154 28 184 36 187 46 2 6 -10 14 -28 18 -32 6 -195 6 -259 -1z"/> <path d="M7505 1225 c-116 -83 -226 -136 -405 -196 -493 -165 -1217 -290 -2065 -359 -623 -50 -1803 -33 -2405 35 -186 21 -300 29 -300 22 0 -8 72 -41 120 -55 345 -103 1597 -189 2370 -163 601 20 1017 56 1354 116 45 8 108 19 141 25 319 57 715 171 901 259 184 88 318 199 371 307 40 81 22 83 -82 9z"/> </g> </svg> 