<?xml version="1.0" standalone="no"?>
<!DOCTYPE svg PUBLIC "-//W3C//DTD SVG 20010904//EN"
 "http://www.w3.org/TR/2001/REC-SVG-20010904/DTD/svg10.dtd">
<svg version="1.0" xmlns="http://www.w3.org/2000/svg" viewBox="0 0 900.000000 456.000000"
 preserveAspectRatio="xMidYMid meet">
<metadata>
Created by potrace 1.10, written by Peter Selinger 2001-2011
</metadata>
<g transform="translate(0.000000,456.000000) scale(0.100000,-0.100000)"
fill="#000000" stroke="none">
<path d="M1269 3865 c-91 -25 -159 -69 -197 -129 -44 -68 -52 -86 -72 -165
-25 -95 -28 -365 -5 -515 9 -57 15 -169 15 -263 0 -186 -7 -211 -78 -275 -50
-45 -66 -54 -149 -79 -38 -12 -74 -26 -80 -31 -9 -7 -13 -49 -13 -144 0 -153
2 -156 94 -170 68 -9 125 -36 162 -76 60 -63 64 -80 64 -275 0 -98 -5 -196
-11 -218 -6 -22 -13 -129 -16 -237 -6 -222 5 -301 59 -413 78 -161 192 -207
488 -199 68 2 132 4 142 4 16 0 18 12 18 129 0 147 4 141 -90 141 -71 0 -119
25 -152 78 l-23 37 0 450 c0 476 -1 484 -49 597 -22 52 -82 106 -149 136 -62
27 -68 43 -20 53 50 10 126 73 157 128 59 110 61 124 61 611 0 440 0 445 22
480 41 66 66 73 245 71 l97 -1 3 -962 c4 -1081 1 -1034 79 -1194 63 -130 145
-192 303 -229 82 -19 193 -17 286 4 25 6 57 13 71 16 15 3 29 12 33 20 5 14
-7 90 -40 250 -8 39 -14 80 -14 92 0 27 -13 36 -59 40 -67 7 -84 22 -102 93
-16 59 -18 155 -18 1113 l-1 1047 -507 -1 c-372 -1 -520 -5 -554 -14z"/>
<path d="M7247 3873 c-13 -12 -8 -251 5 -259 7 -4 42 -8 78 -9 98 -2 143 -31
176 -113 14 -38 16 -66 10 -210 -19 -500 -19 -635 -3 -707 23 -101 42 -141 91
-190 41 -41 77 -62 140 -81 16 -5 30 -13 30 -18 1 -5 -27 -21 -60 -35 -119
-50 -170 -116 -200 -260 -17 -78 -16 -211 2 -702 7 -185 -2 -232 -55 -283 -33
-31 -100 -56 -155 -56 -67 0 -67 -1 -64 -151 l3 -134 190 1 c244 1 295 14 383
98 45 42 69 81 98 158 25 65 31 430 10 603 -21 173 -21 350 0 401 19 47 86
119 134 144 19 9 58 21 85 25 88 13 85 6 85 175 0 169 3 162 -85 174 -98 14
-180 72 -216 154 -24 56 -26 238 -3 413 21 165 15 542 -10 607 -29 77 -53 116
-98 158 -89 85 -161 104 -392 104 -95 0 -176 -3 -179 -7z"/>
<path d="M3285 3134 c-221 -28 -392 -111 -551 -269 -122 -121 -190 -251 -235
-450 -19 -81 -19 -399 0 -480 49 -218 138 -378 279 -503 69 -61 209 -152 234
-152 8 0 18 -4 23 -9 17 -16 156 -49 258 -61 137 -18 305 1 452 48 95 31 257
111 289 141 18 18 17 21 -25 97 -23 44 -53 96 -66 116 -12 21 -23 40 -23 44 0
3 -9 19 -20 34 l-20 29 -76 -35 c-115 -54 -209 -74 -339 -74 -113 0 -174 13
-253 54 -77 40 -165 160 -207 282 -32 91 -78 84 544 84 509 0 549 1 555 17 18
47 28 235 18 320 -24 185 -44 257 -105 373 -34 65 -58 101 -117 173 -42 53
-186 146 -264 172 -104 35 -274 59 -351 49z m206 -435 c109 -55 161 -138 163
-257 l1 -77 -332 -3 c-380 -3 -349 -12 -312 93 51 146 135 238 244 266 52 14
192 1 236 -22z"/>
<path d="M4870 3115 c-152 -22 -244 -59 -352 -142 -52 -39 -122 -121 -156
-181 -49 -88 -67 -268 -37 -368 41 -133 117 -221 280 -320 51 -31 241 -117
330 -150 28 -9 59 -24 70 -31 11 -7 25 -13 33 -13 27 0 102 -66 123 -108 19
-39 20 -48 9 -85 -17 -59 -66 -99 -144 -120 -35 -9 -84 -17 -109 -17 -106 0
-288 69 -397 150 -30 22 -59 40 -65 40 -10 0 -41 -41 -115 -155 -8 -13 -39
-58 -67 -100 -29 -41 -53 -82 -53 -89 0 -33 232 -158 380 -204 127 -40 199
-52 308 -52 276 0 508 89 637 246 95 115 120 186 119 344 0 124 -19 201 -68
278 -59 93 -214 204 -366 262 -47 18 -93 37 -103 41 -10 5 -52 20 -95 34 -76
24 -165 72 -189 104 -66 82 -46 174 48 221 29 16 58 20 127 20 118 0 187 -22
318 -102 34 -21 65 -38 70 -38 5 1 60 69 122 152 126 170 125 165 46 220 -118
83 -273 139 -434 158 -153 18 -177 18 -270 5z"/>
<path d="M6385 3115 c-188 -25 -288 -72 -421 -198 -158 -149 -197 -371 -101
-565 40 -79 46 -88 97 -135 90 -83 196 -146 353 -211 304 -126 296 -121 338
-180 48 -66 36 -143 -31 -193 -33 -25 -138 -53 -197 -53 -107 1 -283 68 -393
150 -57 43 -59 44 -76 32 -19 -12 -224 -321 -224 -337 0 -21 114 -97 220 -146
213 -100 407 -128 634 -94 297 44 483 176 556 395 55 166 23 373 -78 498 -62
77 -281 222 -336 222 -8 0 -17 4 -20 9 -3 5 -18 12 -33 15 -16 4 -41 13 -58
21 -16 8 -63 26 -103 40 -210 77 -266 236 -110 316 28 14 58 19 120 19 120 0
237 -40 345 -117 17 -13 36 -23 42 -23 6 0 59 64 118 143 59 78 110 144 115
145 45 19 -99 124 -256 187 -71 28 -357 81 -402 74 -5 -1 -49 -7 -99 -14z"/>
</g>
</svg>
