 <svg version="1.0" xmlns="http://www.w3.org/2000/svg"  viewBox="0 0 300.000000 275.000000"  preserveAspectRatio="xMidYMid meet">  <g transform="translate(0.000000,275.000000) scale(0.050000,-0.050000)" fill="#000000" stroke="none"> <path d="M2910 5108 c-284 -157 -1635 -944 -1687 -983 -126 -94 -125 -78 -119 -1224 7 -1225 -32 -1079 347 -1306 539 -323 885 -315 1046 25 42 90 62 2062 21 2112 -29 35 -220 38 -254 4 -18 -18 -24 -265 -24 -988 l0 -965 -51 -61 c-106 -125 -217 -104 -577 110 l-232 138 5 967 5 967 310 180 c171 98 545 314 832 479 l523 300 407 -235 c225 -129 597 -344 828 -477 l420 -241 0 -977 0 -977 -810 -470 c-445 -258 -819 -473 -831 -478 -11 -5 -118 50 -237 122 -255 152 -210 144 -382 71 -185 -77 -191 -66 148 -266 486 -287 407 -296 1152 135 319 185 697 403 840 485 469 270 430 146 430 1378 0 1188 16 1107 -247 1264 -1431 857 -1712 994 -1863 911z"/> <path d="M3261 3777 c-331 -55 -520 -263 -497 -546 23 -281 213 -397 736 -451 420 -43 540 -99 540 -250 0 -167 -149 -239 -490 -238 -355 2 -512 79 -542 265 l-13 83 -148 0 -147 0 0 -85 c2 -358 344 -554 927 -530 475 19 697 177 728 515 29 326 -149 445 -816 541 -435 63 -527 122 -448 288 53 112 139 141 419 141 312 0 399 -44 470 -237 l31 -83 127 0 c162 0 179 21 135 173 -99 341 -489 501 -1012 414z"/> </g> </svg> 
