<?xml version="1.0" standalone="no"?>
<!DOCTYPE svg PUBLIC "-//W3C//DTD SVG 20010904//EN"
 "http://www.w3.org/TR/2001/REC-SVG-20010904/DTD/svg10.dtd">
<svg version="1.0" xmlns="http://www.w3.org/2000/svg"
 width="300.000000pt" height="339.000000pt" viewBox="0 0 300.000000 339.000000"
 preserveAspectRatio="xMidYMid meet">
<metadata>
Created by potrace 1.10, written by Peter Selinger 2001-2011
</metadata>
<g transform="translate(0.000000,339.000000) scale(0.050000,-0.050000)"
fill="#000000" stroke="none">
<path d="M2572 5779 c-620 -86 -729 -217 -716 -864 l4 -214 585 -6 585 -5 0
-70 0 -70 -910 -10 -910 -10 -112 -53 c-402 -188 -596 -840 -458 -1539 124
-627 276 -777 785 -778 l275 0 0 295 c1 505 121 748 446 898 l124 57 750 10
c839 12 824 9 986 159 53 48 110 129 142 201 l54 119 -6 706 c-7 840 -22 888
-324 1065 -177 103 -900 164 -1300 109z m-60 -407 c54 -54 68 -84 68 -145 0
-251 -298 -324 -408 -100 -107 221 166 419 340 245z"/>
<path d="M4420 4307 c-1 -555 -130 -822 -476 -983 l-114 -54 -750 -11 c-412
-5 -768 -18 -790 -28 -179 -80 -312 -237 -361 -430 -53 -205 -34 -1338 23
-1461 298 -629 1951 -632 2261 -3 29 58 38 134 44 368 l7 295 -593 0 -593 0 6
75 6 75 970 10 c1071 11 1022 5 1153 143 463 488 384 1915 -121 2183 -71 37
-121 44 -377 50 l-295 8 0 -237z m-515 -2687 c43 -47 55 -81 55 -150 0 -267
-345 -307 -423 -49 -64 215 217 367 368 199z"/>
</g>
</svg>
