 <svg version="1.0" xmlns="http://www.w3.org/2000/svg"  viewBox="0 0 300.000000 349.000000"  preserveAspectRatio="xMidYMid meet">  <g transform="translate(0.000000,349.000000) scale(0.050000,-0.050000)" fill="#000000" stroke="none"> <path d="M2905 6259 c-294 -58 -573 -320 -796 -744 l-107 -205 -296 -2 c-1085 -6 -1436 -701 -848 -1675 120 -199 116 -175 45 -279 -669 -975 -265 -1794 863 -1749 l236 9 57 -125 c501 -1106 1434 -1112 1940 -13 l62 134 335 1 c1077 4 1407 731 781 1722 l-79 124 74 115 c632 988 293 1727 -797 1735 l-314 3 -72 149 c-208 434 -517 733 -825 799 -118 25 -138 25 -259 1z m253 -548 c116 -60 427 -480 382 -516 -6 -4 -122 -45 -260 -90 l-249 -83 -251 84 c-137 46 -253 85 -256 87 -28 13 203 375 288 451 107 94 242 121 346 67z m-1346 -936 c9 -10 -65 -436 -88 -506 -12 -37 -385 -389 -412 -389 -21 0 -151 255 -190 374 -83 249 -46 379 131 460 143 65 514 106 559 61z m2727 4 c482 -50 567 -283 289 -784 l-75 -135 -132 125 c-72 69 -164 154 -205 189 -52 44 -77 85 -86 139 -22 131 -72 395 -82 430 -9 31 17 48 82 54 11 1 105 -7 209 -18z m-1289 -289 c843 -178 1130 -1242 489 -1817 -517 -465 -1356 -307 -1649 310 -384 811 292 1690 1160 1507z m-1792 -1575 c73 -69 161 -150 197 -179 61 -50 68 -70 114 -318 58 -312 62 -298 -97 -298 -567 0 -715 219 -477 705 125 254 100 245 263 90z m3364 0 c263 -484 205 -704 -204 -775 -175 -31 -369 -20 -365 20 1 17 22 138 46 270 l44 240 194 184 c231 220 202 214 285 61z m-1289 -1201 c15 -15 -82 -196 -164 -306 -215 -288 -392 -310 -610 -76 -82 88 -255 362 -236 375 4 3 120 46 257 96 l250 90 247 -85 c135 -46 251 -89 256 -94z"/> <path d="M2864 3767 c-279 -141 -230 -565 74 -647 378 -101 610 393 296 628 -75 55 -279 66 -370 19z"/> </g> </svg> 
