<?xml version="1.0" standalone="no"?>
<!DOCTYPE svg PUBLIC "-//W3C//DTD SVG 20010904//EN"
 "http://www.w3.org/TR/2001/REC-SVG-20010904/DTD/svg10.dtd">
<svg version="1.0" xmlns="http://www.w3.org/2000/svg" viewBox="0 0 300.000000 221.000000"
 preserveAspectRatio="xMidYMid meet">
<metadata>
Created by potrace 1.10, written by Peter Selinger 2001-2011
</metadata>
<g transform="translate(0.000000,221.000000) scale(0.050000,-0.050000)"
fill="#000000" stroke="none">
<path d="M2479 4231 c-1052 -173 -2241 -1104 -2174 -1702 31 -277 281 -553
861 -947 256 -174 251 -152 49 -258 -586 -305 -854 -703 -690 -1024 74 -145
126 -170 353 -170 587 0 1036 653 823 1198 -12 32 -20 60 -16 63 15 15 286
169 298 169 7 0 -1 -43 -17 -95 -116 -364 45 -879 261 -834 114 24 155 68 254
276 l96 203 2 -115 c6 -594 354 -282 760 682 89 212 103 221 131 83 8 -38 41
-131 73 -206 l59 -135 -44 -62 c-25 -34 -115 -147 -201 -251 -217 -261 -206
-343 42 -321 371 34 589 334 473 653 -23 65 -20 75 50 180 41 62 112 182 158
267 90 168 108 176 127 60 7 -41 38 -129 70 -195 l57 -120 -107 -117 c-308
-333 -275 -639 55 -514 287 109 396 282 349 554 -19 111 49 137 359 137 572
-1 919 -378 607 -660 -106 -96 -76 -132 44 -52 300 199 189 647 -205 821 -215
96 -556 96 -798 0 l-91 -36 -54 110 c-73 148 -87 301 -43 474 41 164 31 181
-110 178 -152 -4 -176 -17 -202 -111 -45 -167 -282 -645 -358 -721 -72 -73
-126 323 -69 510 43 141 32 156 -111 156 -152 0 -175 -13 -212 -126 -85 -259
-504 -1176 -550 -1204 -35 -22 -8 154 72 471 63 248 65 272 36 305 -35 38
-106 47 -137 16 -12 -12 -19 28 -19 108 0 299 -256 301 -560 6 -82 -80 -203
-163 -382 -262 l-262 -145 -68 58 c-37 32 -171 141 -298 243 -455 364 -563
550 -489 839 220 862 2389 1674 2712 1016 305 -625 -1256 -1494 -1792 -997
-104 97 -104 -11 1 -126 390 -432 1519 -154 1930 475 496 757 -65 1365 -1103
1195z m156 -2398 c-12 -110 -200 -634 -280 -780 -127 -231 -205 24 -115 375
95 373 426 713 395 405z m1793 -365 c34 -89 -59 -261 -173 -320 -52 -28 -55
-27 -55 16 2 141 193 396 228 304z m-2897 -260 c44 -292 -116 -600 -377 -726
-211 -102 -334 -67 -334 97 0 206 141 373 531 630 170 111 164 111 180 -1z
m2131 -33 c-31 -92 -242 -284 -242 -219 0 22 246 304 256 294 5 -4 -2 -38 -14
-75z"/>
</g>
</svg>
